<svg width="0" height="0" class="hidden">
  <symbol xmlns="http://www.w3.org/2000/svg" viewBox="0 0 512.001 512.001" id="close">
    <path d="M284.286 256.002L506.143 34.144c7.811-7.811 7.811-20.475 0-28.285-7.811-7.81-20.475-7.811-28.285 0L256 227.717 34.143 5.859c-7.811-7.811-20.475-7.811-28.285 0-7.81 7.811-7.811 20.475 0 28.285l221.857 221.857L5.858 477.859c-7.811 7.811-7.811 20.475 0 28.285a19.938 19.938 0 0 0 14.143 5.857 19.94 19.94 0 0 0 14.143-5.857L256 284.287l221.857 221.857c3.905 3.905 9.024 5.857 14.143 5.857s10.237-1.952 14.143-5.857c7.811-7.811 7.811-20.475 0-28.285L284.286 256.002z"/>
  </symbol>
  <symbol xmlns="http://www.w3.org/2000/svg" viewBox="0 0 480.187 480.187" id="success">
    <path d="M243.421 199.48c-62.008-62-130-94.536-151.872-72.672a21.865 21.865 0 0 0-5.152 8.896l-.352-.352-20.888 85.6-20.8 85.344-24.656 101.056-15.608 64 92.408-34.968 117.536-44.472 93.768-35.48-.112-.112a21.826 21.826 0 0 0 8.4-4.968c21.872-21.872-10.664-89.864-72.672-151.872z" fill="#dd1c4b"></path>
    <ellipse transform="rotate(-134.999 203.824 239.05)" cx="203.823" cy="239.049" rx="158.777" ry="56" fill="#d1e3ee"></ellipse>
    <path d="M299.293 359.2a78.408 78.408 0 0 1-32.576-6.464l-76.64 29-117.576 44.432-63.048 23.856L4.093 472l92.408-34.968 117.536-44.472L300.093 360l-.8-.8z" fill="#b21d48"></path>
    <path d="M396.093 296a8.231 8.231 0 0 1-2.808-.504 247.258 247.258 0 0 0-127.296-12.368l-28.576 4.76a8 8 0 0 1-2.64-15.776l28.584-4.8a263.445 263.445 0 0 1 135.544 13.16A8 8 0 0 1 396.093 296zm-144-48a8 8 0 0 1-3.44-15.2l168-80a8 8 0 0 1 10.664 3.784 8 8 0 0 1-3.784 10.664l-168 80a7.995 7.995 0 0 1-3.44.752zm-93.552-16a8 8 0 0 1-7.376-11.079v-.001l11.632-27.912a223.782 223.782 0 0 0 11.944-135.272 8 8 0 1 1 15.616-3.472 239.682 239.682 0 0 1-12.8 144.904l-11.64 27.912a8 8 0 0 1-7.376 4.92z" fill="#ffbf41"></path>
    <circle cx="436.093" cy="312" r="16" fill="#d5557e"></circle>
    <circle cx="244.093" cy="88" r="16" fill="#dd95c1"></circle>
    <path d="M172.093 32c-8.837 0-16-7.163-16-16s7.163-16 16-16 16 7.163 16 16-7.163 16-16 16z" fill="#7fcccb"></path>
    <path d="M396.093 64a8 8 0 0 1-8-8v-8a8 8 0 0 1 16 0v8a8 8 0 0 1-8 8zm0-40a8 8 0 0 1-8-8V8a8 8 0 0 1 16 0v8a8 8 0 0 1-8 8zm24 16h-8a8 8 0 0 1 0-16h8a8 8 0 0 1 0 16zm-40 0h-8a8 8 0 0 1 0-16h8a8 8 0 0 1 0 16z" fill="#2276bb"></path>
    <path d="M67.597 232a223.9 223.9 0 0 1-2.44-10.4l-20.8 85.344 1.6 19.512a179.6 179.6 0 0 0 50.536 110.536l117.544-44.432c-.64-.2-1.304-.344-1.944-.56-71.275-26.725-125.148-86.379-144.496-160z" fill="#fff"></path>
    <path d="M214.037 392.56c-.64-.2-1.304-.344-1.944-.56a233.971 233.971 0 0 1-22.592-9.944L83.629 422.112a179.12 179.12 0 0 0 12.872 14.92l117.536-44.472z" fill="#f6f6e7"></path>
    <path d="M340.093 95.832V136h-40.168V95.832h40.168z" fill="#c9da53"></path>
    <path d="M196.093 240a8 8 0 0 1-5.352-13.944l80-72a8 8 0 0 1 10.704 11.888l-80 72a8 8 0 0 1-5.352 2.056z" fill="#ffbf41"></path>
    <path d="M428.093 208a8 8 0 0 1-8-8v-8a8 8 0 0 1 16 0v8a8 8 0 0 1-8 8zm28.288-11.72a7.94 7.94 0 0 1-5.656-2.344l-5.656-5.656a8 8 0 0 1 11.312-11.312l5.656 5.656a8 8 0 0 1-5.656 13.656zM468.093 168h-8a8 8 0 0 1 0-16h8a8 8 0 0 1 0 16zm-17.368-22.624a8 8 0 0 1-5.656-13.656l5.656-5.656a8 8 0 0 1 11.312 11.312l-5.656 5.656a8 8 0 0 1-5.656 2.344zM428.093 136a8 8 0 0 1-8-8v-8a8 8 0 0 1 16 0v8a8 8 0 0 1-8 8zm-22.632 9.376a8 8 0 0 1-5.656-2.344l-5.656-5.656a8 8 0 0 1 11.312-11.312l5.656 5.656a8 8 0 0 1-5.656 13.656zM44.093 8l12.36 25.048 27.64 4.016-20 19.496 4.72 27.528-24.72-13-24.72 13 4.72-27.528-20-19.496 27.64-4.016L44.093 8z" fill="#ffdb43"></path>
    <path d="M473.565 433.328A55.528 55.528 0 0 0 449.037 401l-3.296-4.944a120.724 120.724 0 0 0-80.328-51.944 8 8 0 0 0-2.64 15.776 104.667 104.667 0 0 1 61.048 34.032 47.198 47.198 0 0 0-32 21.976c-8.616 15.431-3.091 34.924 12.34 43.54s34.924 3.091 43.54-12.34a46.396 46.396 0 0 0 5.192-20.536 39.088 39.088 0 0 1 1.752 41.544 8 8 0 1 0 13.968 7.792 55.641 55.641 0 0 0 4.952-42.568zm-39.816 5.96c-4.27 7.737-14.003 10.547-21.739 6.277-7.737-4.27-10.547-14.003-6.277-21.739l.072-.13a29.977 29.977 0 0 1 21.664-14.096 8.135 8.135 0 0 1 4 .928c6.752 3.768 7.112 20.104 2.28 28.76z" fill="#2bb3ce"></path>
  </symbol>
  <symbol xmlns="http://www.w3.org/2000/svg" viewBox="0 0 48 48" id="vk">
    <path d="M0 24C0 10.7452 10.7452 0 24 0C37.2548 0 48 10.7452 48 24C48 37.2548 37.2548 48 24 48C10.7452 48 0 37.2548 0 24ZM25.2555 31.8761C25.2555 31.8761 25.7175 31.8257 25.9541 31.5762C26.1707 31.3476 26.1632 30.9162 26.1632 30.9162C26.1632 30.9162 26.1344 28.9018 27.0873 28.6043C28.0264 28.3118 29.2321 30.5524 30.5118 31.414C31.4784 32.0654 32.2121 31.9228 32.2121 31.9228L35.6316 31.8761C35.6316 31.8761 37.4196 31.7679 36.5719 30.3877C36.5018 30.2746 36.0773 29.3664 34.0302 27.5006C31.8853 25.5477 32.1733 25.8635 34.7551 22.4849C36.3278 20.4274 36.9563 19.1713 36.7597 18.6343C36.5732 18.1205 35.4162 18.2569 35.4162 18.2569L31.5673 18.2803C31.5673 18.2803 31.2818 18.2422 31.0702 18.3663C30.8636 18.488 30.7296 18.7719 30.7296 18.7719C30.7296 18.7719 30.1211 20.3635 29.3085 21.7179C27.5944 24.5743 26.9095 24.7254 26.629 24.5485C25.9767 24.1343 26.1394 22.8868 26.1394 22.0006C26.1394 19.2316 26.5677 18.0775 25.3068 17.7788C24.8886 17.6793 24.5806 17.6141 23.51 17.6031C22.1365 17.5896 20.9745 17.608 20.3159 17.9239C19.8777 18.134 19.5396 18.6035 19.7462 18.6306C20.0004 18.6637 20.5764 18.783 20.8819 19.191C21.2763 19.7183 21.2625 20.9006 21.2625 20.9006C21.2625 20.9006 21.4892 24.1601 20.7329 24.5644C20.2145 24.8422 19.5033 24.2756 17.9745 21.6835C17.192 20.3562 16.601 18.8887 16.601 18.8887C16.601 18.8887 16.487 18.6146 16.2829 18.4671C16.0363 18.2889 15.6919 18.2336 15.6919 18.2336L12.0346 18.2569C12.0346 18.2569 11.4849 18.2717 11.2833 18.5064C11.1043 18.7141 11.2695 19.1455 11.2695 19.1455C11.2695 19.1455 14.1331 25.7222 17.376 29.037C20.3497 32.0752 23.7254 31.8761 23.7254 31.8761H25.2555Z"/>
  </symbol>
  <symbol xmlns="http://www.w3.org/2000/svg" viewBox="0 0 48 48" id="instagram">
    <path d="M0 24C0 10.7452 10.7452 0 24 0C37.2548 0 48 10.7452 48 24C48 37.2548 37.2548 48 24 48C10.7452 48 0 37.2548 0 24ZM24.0012 11.2C20.5249 11.2 20.0886 11.2152 18.7233 11.2773C17.3606 11.3397 16.4305 11.5555 15.6166 11.872C14.7747 12.1989 14.0606 12.6363 13.3491 13.348C12.6371 14.0595 12.1997 14.7736 11.8717 15.6152C11.5544 16.4294 11.3384 17.3598 11.2771 18.7219C11.216 20.0873 11.2 20.5238 11.2 24.0001C11.2 27.4764 11.2155 27.9114 11.2773 29.2767C11.34 30.6394 11.5557 31.5695 11.872 32.3834C12.1992 33.2253 12.6365 33.9394 13.3483 34.6509C14.0595 35.3629 14.7736 35.8013 15.615 36.1283C16.4294 36.4448 17.3598 36.6605 18.7222 36.7229C20.0876 36.7851 20.5236 36.8003 23.9996 36.8003C27.4762 36.8003 27.9111 36.7851 29.2765 36.7229C30.6391 36.6605 31.5703 36.4448 32.3848 36.1283C33.2264 35.8013 33.9394 35.3629 34.6506 34.6509C35.3626 33.9394 35.8 33.2253 36.128 32.3837C36.4427 31.5695 36.6587 30.6391 36.7227 29.277C36.784 27.9116 36.8 27.4764 36.8 24.0001C36.8 20.5238 36.784 20.0876 36.7227 18.7222C36.6587 17.3595 36.4427 16.4294 36.128 15.6155C35.8 14.7736 35.3626 14.0595 34.6506 13.348C33.9386 12.636 33.2266 12.1987 32.384 11.872C31.5679 11.5555 30.6373 11.3397 29.2746 11.2773C27.9092 11.2152 27.4746 11.2 23.9972 11.2H24.0012Z"/>
    <path d="M22.8529 13.5067C23.1937 13.5062 23.574 13.5067 24.0012 13.5067C27.4188 13.5067 27.8239 13.519 29.1735 13.5803C30.4215 13.6374 31.0989 13.8459 31.5501 14.0211C32.1474 14.2531 32.5733 14.5304 33.021 14.9784C33.469 15.4264 33.7464 15.8531 33.9789 16.4505C34.1541 16.9011 34.3629 17.5785 34.4197 18.8265C34.481 20.1758 34.4944 20.5812 34.4944 23.9972C34.4944 27.4132 34.481 27.8186 34.4197 29.1679C34.3626 30.4159 34.1541 31.0933 33.9789 31.5439C33.7469 32.1413 33.469 32.5666 33.021 33.0144C32.573 33.4624 32.1477 33.7397 31.5501 33.9717C31.0994 34.1477 30.4215 34.3557 29.1735 34.4128C27.8242 34.4741 27.4188 34.4874 24.0012 34.4874C20.5833 34.4874 20.1782 34.4741 18.8289 34.4128C17.5809 34.3552 16.9035 34.1466 16.4521 33.9714C15.8547 33.7394 15.428 33.4621 14.98 33.0141C14.532 32.5661 14.2547 32.1405 14.0222 31.5429C13.847 31.0922 13.6382 30.4149 13.5814 29.1669C13.52 27.8175 13.5078 27.4122 13.5078 23.994C13.5078 20.5758 13.52 20.1726 13.5814 18.8233C13.6384 17.5753 13.847 16.8979 14.0222 16.4467C14.2542 15.8494 14.532 15.4227 14.98 14.9747C15.428 14.5267 15.8547 14.2494 16.4521 14.0168C16.9033 13.8408 17.5809 13.6328 18.8289 13.5755C20.0097 13.5222 20.4673 13.5062 22.8529 13.5035V13.5067ZM30.8338 15.632C29.9858 15.632 29.2978 16.3193 29.2978 17.1675C29.2978 18.0155 29.9858 18.7035 30.8338 18.7035C31.6818 18.7035 32.3698 18.0155 32.3698 17.1675C32.3698 16.3195 31.6818 15.632 30.8338 15.632ZM24.0012 17.4267C20.371 17.4267 17.4278 20.37 17.4278 24.0001C17.4278 27.6303 20.371 30.5722 24.0012 30.5722C27.6314 30.5722 30.5735 27.6303 30.5735 24.0001C30.5735 20.37 27.6314 17.4267 24.0012 17.4267Z"/>
    <path d="M24.0012 19.7334C26.3575 19.7334 28.2679 21.6436 28.2679 24.0001C28.2679 26.3564 26.3575 28.2668 24.0012 28.2668C21.6446 28.2668 19.7345 26.3564 19.7345 24.0001C19.7345 21.6436 21.6446 19.7334 24.0012 19.7334Z"/>
  </symbol>
</svg>
